<svg width="312" height="314" viewBox="0 0 312 314" fill="none" xmlns="http://www.w3.org/2000/svg">
<rect width="312" height="314" rx="36" fill="#E0F7FA"/>
<path d="M0 36C0 16.1177 16.1177 0 36 0H276C295.882 0 312 16.1177 312 36V64H0V36Z" fill="#455A64"/>
<circle cx="40.5" cy="33.5" r="7.5" fill="#E91E63"/>
<circle cx="78" cy="33.5" r="7.5" fill="#FFC107"/>
<circle cx="115.5" cy="33.5" r="7.5" fill="#CEDD38"/>
<rect x="232" y="26" width="59" height="15" rx="7.5" fill="white"/>
<path d="M103.793 228.289C107.558 228.289 110.913 227.662 113.857 226.407C116.85 225.152 119.36 223.39 121.387 221.121C123.414 218.853 124.959 216.102 126.02 212.868C127.131 209.634 127.686 206.014 127.686 202.008V139.309H147.161V202.008C147.161 208.234 146.148 214.002 144.121 219.311C142.142 224.573 139.27 229.134 135.505 232.995C131.788 236.808 127.251 239.801 121.894 241.973C116.536 244.097 110.503 245.158 103.793 245.158C97.0361 245.158 90.9786 244.097 85.621 241.973C80.2634 239.801 75.7021 236.808 71.9373 232.995C68.2208 229.134 65.3489 224.573 63.3217 219.311C61.3427 214.002 60.3533 208.234 60.3533 202.008V139.309H79.829V201.935C79.829 205.942 80.3599 209.562 81.4218 212.795C82.5319 216.029 84.1006 218.805 86.1278 221.121C88.2033 223.39 90.7132 225.152 93.6574 226.407C96.65 227.662 100.029 228.289 103.793 228.289ZM261.436 244H242.033C240.682 244 239.596 243.662 238.775 242.986C238.003 242.311 237.375 241.538 236.893 240.67L212.638 200.487C212.252 201.694 211.794 202.732 211.263 203.601L188.022 240.67C187.443 241.49 186.767 242.262 185.995 242.986C185.271 243.662 184.306 244 183.099 244H164.927L199.679 190.134L166.302 139.309H185.705C187.057 139.309 188.022 139.502 188.602 139.888C189.229 140.226 189.808 140.805 190.339 141.626L214.159 179.998C214.642 178.791 215.221 177.585 215.896 176.378L237.761 141.988C238.292 141.071 238.872 140.395 239.499 139.961C240.126 139.526 240.923 139.309 241.888 139.309H260.495L226.829 189.338L261.436 244Z" fill="#455A64"/>
</svg>
