<svg width="312" height="314" viewBox="0 0 312 314" fill="none" xmlns="http://www.w3.org/2000/svg">
<rect width="312" height="314" rx="36" fill="#E0F7FA"/>
<path d="M0 36C0 16.1177 16.1177 0 36 0H276C295.882 0 312 16.1177 312 36V64H0V36Z" fill="#455A64"/>
<circle cx="40.5" cy="33.5" r="7.5" fill="#E91E63"/>
<circle cx="78" cy="33.5" r="7.5" fill="#FFC107"/>
<circle cx="115.5" cy="33.5" r="7.5" fill="#CEDD38"/>
<rect x="232" y="26" width="59" height="15" rx="7.5" fill="white"/>
<path d="M128.793 228.289C132.558 228.289 135.913 227.662 138.857 226.407C141.85 225.152 144.36 223.39 146.387 221.121C148.414 218.853 149.959 216.102 151.02 212.868C152.131 209.634 152.686 206.014 152.686 202.008V139.309H172.161V202.008C172.161 208.234 171.148 214.002 169.121 219.311C167.142 224.573 164.27 229.134 160.505 232.995C156.788 236.808 152.251 239.801 146.894 241.973C141.536 244.097 135.503 245.158 128.793 245.158C122.036 245.158 115.979 244.097 110.621 241.973C105.263 239.801 100.702 236.808 96.9373 232.995C93.2208 229.134 90.3489 224.573 88.3217 219.311C86.3427 214.002 85.3533 208.234 85.3533 202.008V139.309H104.829V201.935C104.829 205.942 105.36 209.562 106.422 212.795C107.532 216.029 109.101 218.805 111.128 221.121C113.203 223.39 115.713 225.152 118.657 226.407C121.65 227.662 125.029 228.289 128.793 228.289ZM225.258 244H205.71V139.309H225.258V244Z" fill="#455A64"/>
</svg>
