<svg width="376" height="333" viewBox="0 0 376 333" fill="none" xmlns="http://www.w3.org/2000/svg">
<rect x="25" width="312" height="314" rx="36" fill="#E0F7FA"/>
<path d="M25 36C25 16.1177 41.1177 0 61 0H301C320.882 0 337 16.1177 337 36V64H25V36Z" fill="#455A64"/>
<circle cx="65.5" cy="33.5" r="7.5" fill="#E91E63"/>
<circle cx="103" cy="33.5" r="7.5" fill="#FFC107"/>
<circle cx="140.5" cy="33.5" r="7.5" fill="#CEDD38"/>
<rect x="257" y="26" width="59" height="15" rx="7.5" fill="white"/>
<path d="M126.914 163.542L126.684 265.984L78.7561 265.876L78.9874 163.433L126.914 163.542Z" fill="#FFCE31"/>
<path d="M99.5702 307.877L105.674 307.889C117.238 307.914 126.574 298.618 126.759 286.893L126.803 266.013L78.6181 265.911L78.5739 286.791C78.5494 298.356 88.0058 307.852 99.5702 307.877Z" fill="#ED4C5C"/>
<path d="M126.683 252.957L126.658 266.131L78.7301 266.03L78.7564 252.858L126.683 252.957Z" fill="#93A2AA"/>
<path d="M121.687 252.948L121.66 266.121L83.9521 266.042L83.9832 252.869L121.687 252.948Z" fill="#C7D3D8"/>
<path d="M127.02 163.539L110.235 125.758L95.7797 125.727L78.835 163.437L127.02 163.539Z" fill="#FED0AC"/>
<path d="M107.197 119.166C104.799 113.861 101.105 114.014 98.6843 119.309L90.4544 137.441L115.189 137.494L107.197 119.166Z" fill="#333333"/>
<path d="M126.916 163.402L126.727 252.898L110.826 252.864L111.015 163.368L126.916 163.402Z" fill="#FFDF85"/>
<path d="M94.8228 163.41L94.6333 252.906L78.7322 252.872L78.9217 163.376L94.8228 163.41Z" fill="#FF8736"/>
<path d="M219.072 299.496L153.016 299.932L151.67 97.2463L217.726 96.8098L219.072 299.496Z" fill="#FFA000"/>
<path d="M182.156 202.808L152.297 203.007L152.237 193.958L182.095 193.76L182.156 202.808ZM169.251 177.296L152.51 177.407L152.45 168.359L169.191 168.247L169.251 177.296ZM181.818 151.611L151.959 151.81L151.899 142.761L181.758 142.563L181.818 151.611ZM151.911 126.225L151.853 117.173L168.591 117.065L168.651 126.113L151.911 126.225ZM169.923 279.693L153.182 279.805L153.122 270.756L169.862 270.645L169.923 279.693ZM182.49 254.008L152.631 254.207L152.571 245.159L182.43 244.96L182.49 254.008ZM169.588 228.493L152.848 228.604L152.788 219.556L169.528 219.445L169.588 228.493Z" fill="#9E6400"/>
<path d="M259.617 151.663L271.798 151.464C275.965 151.394 279.975 149.86 283.123 147.13C286.272 144.4 288.36 140.649 289.02 136.534L289.795 131.696C290.234 128.964 290.027 126.167 289.192 123.528C288.356 120.89 286.915 118.484 284.984 116.502L280.685 112.081C279.011 110.365 277.703 108.328 276.839 106.093C275.974 103.857 275.572 101.47 275.655 99.0745L275.798 95.1063C275.803 94.9812 275.765 94.8582 275.691 94.7569C275.288 94.1965 274.693 93.8041 274.019 93.6548C273.345 93.5054 272.639 93.6094 272.037 93.947L258.124 101.717L256.237 103.078C251.125 106.761 247.083 111.736 244.525 117.494C241.967 123.252 240.985 129.587 241.68 135.849C242.166 140.245 244.274 144.302 247.592 147.228C250.909 150.153 255.194 151.732 259.617 151.663Z" fill="#FFB02E"/>
<path d="M282.958 169.438L264.775 183.993L247.473 169.874L247.296 155.086C247.278 153.518 247.883 152.007 248.979 150.885C250.075 149.763 251.572 149.122 253.14 149.103L276.794 148.81C278.363 148.792 279.874 149.398 280.996 150.494C282.118 151.59 282.758 153.086 282.777 154.655L282.958 169.438Z" fill="#D3D3D3"/>
<path d="M282.958 169.438L247.473 169.874L251.471 282.214C251.629 286.152 253.317 289.874 256.176 292.587C259.035 295.3 262.839 296.791 266.78 296.743C270.721 296.694 274.488 295.111 277.28 292.328C280.071 289.546 281.667 285.784 281.729 281.843L282.958 169.438Z" fill="#F92F60"/>
<path d="M337 278C337 297.882 320.882 314 301 314L61 314C41.1178 314 25 297.882 25 278V265L337 265V278Z" fill="#455A64"/>
</svg>
